# xmcd
#
# Track frame offsets: 
#        150
#        19862
#        34697
#        49922
#        66587
#        92617
#        106940
#        124182
#        138517
#        154117
#        168652
#        189960
#
# Disc length: 2751 seconds
#
# Revision: 1
# Processed by: cddbd v1.5.2PL0 Copyright (c) Steve Scherf et al.
# Submitted via: ExactAudioCopy v0.95b4
#
DISCID=a30abd0c
DTITLE=Lisa Ono - Dans Mon Ile
DYEAR=2003
DGENRE=Jazz
TTITLE0=C'Est Si Bon
TTITLE1=Rever...
TTITLE2=Les Feuilles Mortes
TTITLE3=Les Parapluies De Cherbourg
TTITLE4=J' Ai Vu
TTITLE5=Salade De Fruits
TTITLE6=Watch What Happens
TTITLE7=Elle, Lui, Nous 
TTITLE8=Dans Mon Ile
TTITLE9=Pour Toi
TTITLE10=La Vie En Rose
TTITLE11=Derniere Valse
EXTD=YEAR: 2003
EXTT0=
EXTT1=
EXTT2=
EXTT3=
EXTT4=
EXTT5=
EXTT6=
EXTT7=
EXTT8=
EXTT9=
EXTT10=
EXTT11=
PLAYORDER=
